<?xml version="1.0" encoding="utf-8"?>
<!-- Generator: Adobe Illustrator 19.0.1, SVG Export Plug-In . SVG Version: 6.00 Build 0)  -->
<svg version="1.1" id="Capa_1" xmlns="http://www.w3.org/2000/svg" xmlns:xlink="http://www.w3.org/1999/xlink" x="0px" y="0px"
	 viewBox="-404 282.3 32 32" style="enable-background:new -404 282.3 32 32;" xml:space="preserve">
<style type="text/css">
	.st0{fill:#FFFFFF;}
</style>
<path class="st0" d="M-375.3,289.4c-0.7-0.9-1.7-2.1-2.7-3.1s-2.2-2-3.1-2.7c-1.6-1.2-2.4-1.3-2.8-1.3h-15.5c-1.4,0-2.5,1.1-2.5,2.5
	v27c0,1.4,1.1,2.5,2.5,2.5h23c1.4,0,2.5-1.1,2.5-2.5v-19.5C-374,291.8-374.1,291-375.3,289.4z M-379.5,287.7c1,1,1.7,1.8,2.3,2.5
	h-4.8v-4.8C-381.3,286-380.4,286.8-379.5,287.7z M-376,311.8c0,0.3-0.2,0.5-0.5,0.5h-23c-0.3,0-0.5-0.2-0.5-0.5v-27
	c0-0.3,0.2-0.5,0.5-0.5c0,0,15.5,0,15.5,0v7c0,0.6,0.4,1,1,1h7V311.8z"/>
<path class="st0" d="M-381,308.3h-14c-0.6,0-1-0.4-1-1s0.4-1,1-1h14c0.6,0,1,0.4,1,1S-380.4,308.3-381,308.3z"/>
<path class="st0" d="M-381,304.3h-14c-0.6,0-1-0.4-1-1s0.4-1,1-1h14c0.6,0,1,0.4,1,1S-380.4,304.3-381,304.3z"/>
<path class="st0" d="M-381,300.3h-14c-0.6,0-1-0.4-1-1s0.4-1,1-1h14c0.6,0,1,0.4,1,1S-380.4,300.3-381,300.3z"/>
</svg>
