<?xml version="1.0" encoding="utf-8"?>
<!-- Generator: Adobe Illustrator 19.0.1, SVG Export Plug-In . SVG Version: 6.00 Build 0)  -->
<svg version="1.1" id="Capa_1" xmlns="http://www.w3.org/2000/svg" xmlns:xlink="http://www.w3.org/1999/xlink" x="0px" y="0px"
	 viewBox="-404 282.3 32 32" style="enable-background:new -404 282.3 32 32;" xml:space="preserve">
<style type="text/css">
	.st0{fill:#FCEFD2;}
</style>
<path class="st0" d="M-389.2,287.8c-5.1,0-9.3,4.1-9.3,9.3s4.1,9.3,9.3,9.3s9.3-4.1,9.3-9.3S-384.1,287.8-389.2,287.8z
	 M-393.8,292.4h9.3c0.2,0,0.4,0.1,0.4,0.1l-5.1,6l-5.1-6C-394.2,292.4-394,292.4-393.8,292.4L-393.8,292.4z M-395,300.6v-7v-0.1
	l3.4,4l-3.4,3.4C-395,300.7-395,300.7-395,300.6L-395,300.6z M-384.5,301.7h-9.3c-0.1,0-0.3,0-0.3-0.1l3.3-3.3l1.6,1.9l1.6-1.9
	l3.3,3.3C-384.4,301.7-384.5,301.7-384.5,301.7z M-383.4,300.6c0,0.1,0,0.3-0.1,0.3l-3.4-3.4l3.4-4v0.1L-383.4,300.6L-383.4,300.6z"
	/>
</svg>
