<?xml version="1.0" encoding="utf-8"?>
<!-- Generator: Adobe Illustrator 19.0.1, SVG Export Plug-In . SVG Version: 6.00 Build 0)  -->
<svg version="1.1" id="Capa_1" xmlns="http://www.w3.org/2000/svg" xmlns:xlink="http://www.w3.org/1999/xlink" x="0px" y="0px"
	 viewBox="-404 282.3 32 32" style="enable-background:new -404 282.3 32 32;" xml:space="preserve">
<style type="text/css">
	.st0{fill:#FFFFFF;}
</style>
<path class="st0" d="M-388,282.3c-8.8,0-16,7.2-16,16s7.2,16,16,16s16-7.2,16-16S-379.2,282.3-388,282.3z M-396,290.3h16
	c0.3,0,0.6,0.1,0.8,0.2l-8.8,10.3l-8.8-10.3C-396.6,290.3-396.3,290.3-396,290.3L-396,290.3z M-398,304.3v-12c0,0,0-0.1,0-0.1
	l5.9,6.8l-5.8,5.8C-398,304.6-398,304.5-398,304.3L-398,304.3z M-380,306.3h-16c-0.2,0-0.4,0-0.5-0.1l5.7-5.7l2.8,3.3l2.8-3.3
	l5.7,5.7C-379.6,306.3-379.8,306.3-380,306.3z M-378,304.3c0,0.2,0,0.4-0.1,0.5l-5.8-5.8l5.9-6.8c0,0,0,0.1,0,0.1V304.3z"/>
</svg>
